<?xml version="1.0" encoding="UTF-8"?>
<svg id="Layer_2" data-name="Layer 2" xmlns="http://www.w3.org/2000/svg" viewBox="0 0 722.22 297.19">
  <defs>
    <style>
      .cls-1 {
        fill: #204b76;
      }

      .cls-2 {
        fill: #899c95;
      }

      .cls-3 {
        fill: #c9a758;
      }
    </style>
  </defs>
  <g id="Layer_1-2" data-name="Layer 1">
    <g>
      <polygon class="cls-1" points="310.68 180.93 229.12 32.14 247.88 0 345.45 180.93 310.68 180.93"/>
      <path class="cls-2" d="M135.37,180.93l74.39-124.11,18.76,32.18c-21.36,29.41-39.5,60.92-58.39,91.93h-34.76Z"/>
      <polygon class="cls-3" points="272.18 136.44 242.28 136.44 266.2 181.3 216.11 181.3 241.53 136.44 212.75 136.44 211.63 136.44 211.63 118.5 272.18 118.13 272.18 136.44"/>
      <g>
        <path class="cls-1" d="M56.23,39.07H.23V6.07h152.5v33h-56v142h-40.5V39.07Z"/>
        <path class="cls-1" d="M357.24,6.07h40.5v142h87.75v33h-128.25V6.07Z"/>
        <path class="cls-1" d="M508.24,6.07h40.5v175h-40.5V6.07Z"/>
        <path class="cls-1" d="M576.48,163.82l13.75-30.5c14.75,10.75,36.75,18.25,57.75,18.25,24,0,33.75-8,33.75-18.75,0-32.75-101.75-10.25-101.75-75.25,0-29.75,24-54.5,73.75-54.5,22,0,44.5,5.25,60.75,15.5l-12.5,30.75c-16.25-9.25-33-13.75-48.5-13.75-24,0-33.25,9-33.25,20,0,32.25,101.75,10,101.75,74.25,0,29.25-24.25,54.25-74.25,54.25-27.75,0-55.75-8.25-71.25-20.25Z"/>
      </g>
    </g>
    <g>
      <path class="cls-1" d="M64.8,278.2H26.72l-7.26,17.58H0l36.56-82.03h18.75l36.68,82.03h-19.92l-7.26-17.58ZM58.82,263.79l-13.01-31.4-13.01,31.4h26.01Z"/>
      <path class="cls-1" d="M180.7,213.75v82.03h-15.58l-40.9-49.8v49.8h-18.75v-82.03h15.7l40.78,49.8v-49.8h18.75Z"/>
      <path class="cls-1" d="M259.1,278.2h-38.09l-7.26,17.58h-19.45l36.56-82.03h18.75l36.68,82.03h-19.92l-7.26-17.58ZM253.12,263.79l-13.01-31.4-13.01,31.4h26.01Z"/>
      <path class="cls-1" d="M299.76,213.75h18.98v66.56h41.13v15.47h-60.11v-82.03Z"/>
      <path class="cls-1" d="M406.4,266.72v29.06h-18.98v-29.3l-31.76-52.73h20.15l21.92,36.44,21.91-36.44h18.63l-31.87,52.97Z"/>
      <path class="cls-1" d="M466.63,229.22h-26.25v-15.47h71.48v15.47h-26.25v66.56h-18.98v-66.56Z"/>
      <path class="cls-1" d="M526.99,213.75h18.98v82.03h-18.98v-82.03Z"/>
      <path class="cls-1" d="M565.19,254.77c0-24.73,18.98-42.42,44.53-42.42,14.18,0,26.01,5.16,33.75,14.53l-12.19,11.25c-5.51-6.33-12.42-9.61-20.62-9.61-15.35,0-26.25,10.78-26.25,26.25s10.9,26.25,26.25,26.25c8.2,0,15.12-3.28,20.62-9.73l12.19,11.25c-7.74,9.49-19.57,14.65-33.87,14.65-25.43,0-44.41-17.69-44.41-42.42Z"/>
      <path class="cls-1" d="M654.02,287.69l6.45-14.3c6.91,5.04,17.23,8.55,27.07,8.55,11.25,0,15.82-3.75,15.82-8.79,0-15.35-47.69-4.81-47.69-35.27,0-13.94,11.25-25.55,34.57-25.55,10.31,0,20.86,2.46,28.47,7.27l-5.86,14.41c-7.62-4.34-15.47-6.45-22.73-6.45-11.25,0-15.59,4.22-15.59,9.38,0,15.12,47.7,4.69,47.7,34.8,0,13.71-11.37,25.43-34.81,25.43-13.01,0-26.13-3.87-33.4-9.49Z"/>
    </g>
  </g>
</svg>