<?xml version="1.0" encoding="UTF-8"?>
<svg id="Layer_2" data-name="Layer 2" xmlns="http://www.w3.org/2000/svg" viewBox="0 0 721.75 184.07">
  <defs>
    <style>
      .cls-1 {
        fill: #204b76;
      }

      .cls-2 {
        fill: #899c95;
      }

      .cls-3 {
        fill: #c9a758;
      }
    </style>
  </defs>
  <g id="Layer_1-2" data-name="Layer 1">
    <g>
      <polygon class="cls-1" points="310.45 180.93 228.89 32.14 247.64 0 345.21 180.93 310.45 180.93"/>
      <path class="cls-2" d="M135.14,180.93l74.39-124.11,18.76,32.18c-21.36,29.41-39.5,60.92-58.39,91.93h-34.76Z"/>
      <polygon class="cls-3" points="271.95 136.44 242.05 136.44 265.97 181.3 215.88 181.3 241.3 136.44 212.52 136.44 211.39 136.44 211.39 118.5 271.95 118.13 271.95 136.44"/>
      <g>
        <path class="cls-1" d="M56,39.07H0V6.07h152.5v33h-56v142h-40.5V39.07Z"/>
        <path class="cls-1" d="M357,6.07h40.5v142h87.75v33h-128.25V6.07Z"/>
        <path class="cls-1" d="M508,6.07h40.5v175h-40.5V6.07Z"/>
        <path class="cls-1" d="M576.25,163.82l13.75-30.5c14.75,10.75,36.75,18.25,57.75,18.25,24,0,33.75-8,33.75-18.75,0-32.75-101.75-10.25-101.75-75.25,0-29.75,24-54.5,73.75-54.5,22,0,44.5,5.25,60.75,15.5l-12.5,30.75c-16.25-9.25-33-13.75-48.5-13.75-24,0-33.25,9-33.25,20,0,32.25,101.75,10,101.75,74.25,0,29.25-24.25,54.25-74.25,54.25-27.75,0-55.75-8.25-71.25-20.25Z"/>
      </g>
    </g>
  </g>
</svg>